<mxfile host="Electron" agent="Mozilla/5.0 (X11; Linux x86_64) AppleWebKit/537.36 (KHTML, like Gecko) draw.io/24.7.17 Chrome/128.0.6613.36 Electron/32.0.1 Safari/537.36" version="24.7.17">
  <diagram name="Page-1" id="h-33Ypo1zXG0YeIfGgGF">
    <mxGraphModel dx="1114" dy="870" grid="1" gridSize="10" guides="1" tooltips="1" connect="1" arrows="1" fold="1" page="1" pageScale="1" pageWidth="850" pageHeight="1100" math="0" shadow="0">
      <root>
        <mxCell id="0" />
        <mxCell id="1" parent="0" />
        <mxCell id="BdMwT2BXw6ccnMAw5Xdu-15" style="edgeStyle=orthogonalEdgeStyle;rounded=0;orthogonalLoop=1;jettySize=auto;html=1;exitX=1;exitY=0.5;exitDx=0;exitDy=0;endArrow=none;endFill=0;entryX=0;entryY=0.25;entryDx=0;entryDy=0;" parent="1" source="BdMwT2BXw6ccnMAw5Xdu-12" target="nYWVUmKUhp8h8kReskuT-10" edge="1">
          <mxGeometry relative="1" as="geometry">
            <mxPoint x="400" y="500" as="targetPoint" />
          </mxGeometry>
        </mxCell>
        <mxCell id="BdMwT2BXw6ccnMAw5Xdu-12" value="RX_VLD" style="shape=step;perimeter=stepPerimeter;whiteSpace=wrap;html=1;fixedSize=1;size=10;" parent="1" vertex="1">
          <mxGeometry x="160" y="490" width="80" height="20" as="geometry" />
        </mxCell>
        <mxCell id="BdMwT2BXw6ccnMAw5Xdu-13" value="TX_VLD" style="shape=step;perimeter=stepPerimeter;whiteSpace=wrap;html=1;fixedSize=1;size=10;" parent="1" vertex="1">
          <mxGeometry x="600" y="490" width="80" height="20" as="geometry" />
        </mxCell>
        <mxCell id="BdMwT2BXw6ccnMAw5Xdu-14" style="edgeStyle=orthogonalEdgeStyle;rounded=0;orthogonalLoop=1;jettySize=auto;html=1;exitX=1;exitY=0.25;exitDx=0;exitDy=0;endArrow=none;endFill=0;" parent="1" source="nYWVUmKUhp8h8kReskuT-10" target="BdMwT2BXw6ccnMAw5Xdu-13" edge="1">
          <mxGeometry relative="1" as="geometry">
            <mxPoint x="580" y="500" as="sourcePoint" />
          </mxGeometry>
        </mxCell>
        <mxCell id="BdMwT2BXw6ccnMAw5Xdu-20" value="" style="group" parent="1" vertex="1" connectable="0">
          <mxGeometry x="460" y="550" width="40" height="60" as="geometry" />
        </mxCell>
        <mxCell id="BdMwT2BXw6ccnMAw5Xdu-21" value="" style="rounded=0;whiteSpace=wrap;html=1;" parent="BdMwT2BXw6ccnMAw5Xdu-20" vertex="1">
          <mxGeometry width="40" height="60" as="geometry" />
        </mxCell>
        <mxCell id="BdMwT2BXw6ccnMAw5Xdu-22" value="D" style="text;html=1;strokeColor=none;fillColor=none;align=left;verticalAlign=middle;whiteSpace=wrap;rounded=0;" parent="BdMwT2BXw6ccnMAw5Xdu-20" vertex="1">
          <mxGeometry width="20" height="20" as="geometry" />
        </mxCell>
        <mxCell id="BdMwT2BXw6ccnMAw5Xdu-23" value="Q" style="text;html=1;strokeColor=none;fillColor=none;align=right;verticalAlign=middle;whiteSpace=wrap;rounded=0;" parent="BdMwT2BXw6ccnMAw5Xdu-20" vertex="1">
          <mxGeometry x="20" width="20" height="20" as="geometry" />
        </mxCell>
        <mxCell id="BdMwT2BXw6ccnMAw5Xdu-24" value="" style="endArrow=none;html=1;rounded=0;" parent="BdMwT2BXw6ccnMAw5Xdu-20" edge="1">
          <mxGeometry width="50" height="50" relative="1" as="geometry">
            <mxPoint y="60" as="sourcePoint" />
            <mxPoint x="20" y="60" as="targetPoint" />
            <Array as="points">
              <mxPoint x="10" y="50" />
            </Array>
          </mxGeometry>
        </mxCell>
        <mxCell id="BdMwT2BXw6ccnMAw5Xdu-26" value="EN" style="text;html=1;strokeColor=none;fillColor=none;align=left;verticalAlign=middle;whiteSpace=wrap;rounded=0;" parent="BdMwT2BXw6ccnMAw5Xdu-20" vertex="1">
          <mxGeometry y="20" width="20" height="20" as="geometry" />
        </mxCell>
        <mxCell id="BdMwT2BXw6ccnMAw5Xdu-27" style="edgeStyle=orthogonalEdgeStyle;rounded=0;orthogonalLoop=1;jettySize=auto;html=1;exitX=1;exitY=0.5;exitDx=0;exitDy=0;endArrow=none;endFill=0;" parent="1" source="BdMwT2BXw6ccnMAw5Xdu-28" edge="1">
          <mxGeometry relative="1" as="geometry">
            <mxPoint x="440" y="550" as="targetPoint" />
            <Array as="points">
              <mxPoint x="260" y="550" />
              <mxPoint x="260" y="550" />
            </Array>
          </mxGeometry>
        </mxCell>
        <mxCell id="BdMwT2BXw6ccnMAw5Xdu-28" value="RX_DAT" style="shape=step;perimeter=stepPerimeter;whiteSpace=wrap;html=1;fixedSize=1;size=10;" parent="1" vertex="1">
          <mxGeometry x="160" y="540" width="80" height="20" as="geometry" />
        </mxCell>
        <mxCell id="BdMwT2BXw6ccnMAw5Xdu-29" style="edgeStyle=orthogonalEdgeStyle;rounded=0;orthogonalLoop=1;jettySize=auto;html=1;exitX=1;exitY=0.5;exitDx=0;exitDy=0;entryX=0;entryY=0.5;entryDx=0;entryDy=0;endArrow=none;endFill=0;" parent="1" source="BdMwT2BXw6ccnMAw5Xdu-30" target="nYWVUmKUhp8h8kReskuT-5" edge="1">
          <mxGeometry relative="1" as="geometry">
            <mxPoint x="320" y="640" as="targetPoint" />
          </mxGeometry>
        </mxCell>
        <mxCell id="BdMwT2BXw6ccnMAw5Xdu-30" value="RX_RDY" style="shape=step;perimeter=stepPerimeter;whiteSpace=wrap;html=1;fixedSize=1;size=10;flipH=1;" parent="1" vertex="1">
          <mxGeometry x="160" y="630" width="80" height="20" as="geometry" />
        </mxCell>
        <mxCell id="BdMwT2BXw6ccnMAw5Xdu-34" value="TX_DAT" style="shape=step;perimeter=stepPerimeter;whiteSpace=wrap;html=1;fixedSize=1;size=10;" parent="1" vertex="1">
          <mxGeometry x="600" y="540" width="80" height="20" as="geometry" />
        </mxCell>
        <mxCell id="BdMwT2BXw6ccnMAw5Xdu-35" style="edgeStyle=orthogonalEdgeStyle;rounded=0;orthogonalLoop=1;jettySize=auto;html=1;endArrow=none;endFill=0;exitX=0.5;exitY=0;exitDx=0;exitDy=0;" parent="1" source="nYWVUmKUhp8h8kReskuT-19" target="BdMwT2BXw6ccnMAw5Xdu-34" edge="1">
          <mxGeometry relative="1" as="geometry">
            <mxPoint x="549.3599999999999" y="546.39" as="sourcePoint" />
          </mxGeometry>
        </mxCell>
        <mxCell id="BdMwT2BXw6ccnMAw5Xdu-37" value="TX_RDY" style="shape=step;perimeter=stepPerimeter;whiteSpace=wrap;html=1;fixedSize=1;size=10;flipH=1;" parent="1" vertex="1">
          <mxGeometry x="600" y="630" width="80" height="20" as="geometry" />
        </mxCell>
        <mxCell id="BdMwT2BXw6ccnMAw5Xdu-38" style="edgeStyle=orthogonalEdgeStyle;rounded=0;orthogonalLoop=1;jettySize=auto;html=1;endArrow=none;endFill=0;exitX=1;exitY=0.5;exitDx=0;exitDy=0;entryX=0;entryY=0.5;entryDx=0;entryDy=0;" parent="1" source="nYWVUmKUhp8h8kReskuT-4" target="BdMwT2BXw6ccnMAw5Xdu-37" edge="1">
          <mxGeometry relative="1" as="geometry">
            <mxPoint x="470" y="640" as="targetPoint" />
            <mxPoint x="360" y="640" as="sourcePoint" />
            <Array as="points" />
          </mxGeometry>
        </mxCell>
        <mxCell id="BdMwT2BXw6ccnMAw5Xdu-41" style="edgeStyle=orthogonalEdgeStyle;rounded=0;orthogonalLoop=1;jettySize=auto;html=1;endArrow=oval;endFill=1;exitX=0;exitY=0.5;exitDx=0;exitDy=0;startArrow=none;startFill=0;" parent="1" source="nYWVUmKUhp8h8kReskuT-11" edge="1">
          <mxGeometry relative="1" as="geometry">
            <mxPoint x="280" y="640" as="targetPoint" />
            <mxPoint x="380" y="500" as="sourcePoint" />
          </mxGeometry>
        </mxCell>
        <mxCell id="BdMwT2BXw6ccnMAw5Xdu-42" style="edgeStyle=orthogonalEdgeStyle;rounded=0;orthogonalLoop=1;jettySize=auto;html=1;endArrow=oval;endFill=1;startArrow=none;startFill=0;exitX=0;exitY=0.5;exitDx=0;exitDy=0;" parent="1" source="FcU1g4WXBQIu41VEVguv-2" edge="1">
          <mxGeometry relative="1" as="geometry">
            <mxPoint x="280" y="590" as="targetPoint" />
            <mxPoint x="351" y="580" as="sourcePoint" />
          </mxGeometry>
        </mxCell>
        <mxCell id="nYWVUmKUhp8h8kReskuT-9" value="" style="group" parent="1" vertex="1" connectable="0">
          <mxGeometry x="450" y="490" width="50" height="40" as="geometry" />
        </mxCell>
        <mxCell id="nYWVUmKUhp8h8kReskuT-10" value="OR" style="whiteSpace=wrap;html=1;aspect=fixed;" parent="nYWVUmKUhp8h8kReskuT-9" vertex="1">
          <mxGeometry x="10" width="40" height="40" as="geometry" />
        </mxCell>
        <mxCell id="nYWVUmKUhp8h8kReskuT-11" value="" style="ellipse;whiteSpace=wrap;html=1;" parent="nYWVUmKUhp8h8kReskuT-9" vertex="1">
          <mxGeometry y="25" width="10" height="10" as="geometry" />
        </mxCell>
        <mxCell id="nYWVUmKUhp8h8kReskuT-12" value="" style="group" parent="1" vertex="1" connectable="0">
          <mxGeometry x="300" y="630" width="40" height="60" as="geometry" />
        </mxCell>
        <mxCell id="nYWVUmKUhp8h8kReskuT-3" value="" style="rounded=0;whiteSpace=wrap;html=1;" parent="nYWVUmKUhp8h8kReskuT-12" vertex="1">
          <mxGeometry width="40" height="60" as="geometry" />
        </mxCell>
        <mxCell id="nYWVUmKUhp8h8kReskuT-5" value="Q" style="text;html=1;strokeColor=none;fillColor=none;align=left;verticalAlign=middle;whiteSpace=wrap;rounded=0;" parent="nYWVUmKUhp8h8kReskuT-12" vertex="1">
          <mxGeometry width="20" height="20" as="geometry" />
        </mxCell>
        <mxCell id="nYWVUmKUhp8h8kReskuT-4" value="D" style="text;html=1;strokeColor=none;fillColor=none;align=right;verticalAlign=middle;whiteSpace=wrap;rounded=0;" parent="nYWVUmKUhp8h8kReskuT-12" vertex="1">
          <mxGeometry x="20" width="20" height="20" as="geometry" />
        </mxCell>
        <mxCell id="nYWVUmKUhp8h8kReskuT-6" value="" style="endArrow=none;html=1;rounded=0;" parent="nYWVUmKUhp8h8kReskuT-12" edge="1">
          <mxGeometry width="50" height="50" relative="1" as="geometry">
            <mxPoint x="20" y="60" as="sourcePoint" />
            <mxPoint x="40" y="60" as="targetPoint" />
            <Array as="points">
              <mxPoint x="30" y="50" />
            </Array>
          </mxGeometry>
        </mxCell>
        <mxCell id="nYWVUmKUhp8h8kReskuT-7" value="S" style="text;html=1;strokeColor=none;fillColor=none;align=center;verticalAlign=middle;whiteSpace=wrap;rounded=0;" parent="nYWVUmKUhp8h8kReskuT-12" vertex="1">
          <mxGeometry y="40" width="20" height="20" as="geometry" />
        </mxCell>
        <mxCell id="nYWVUmKUhp8h8kReskuT-8" value="EN" style="text;html=1;strokeColor=none;fillColor=none;align=right;verticalAlign=middle;whiteSpace=wrap;rounded=0;" parent="nYWVUmKUhp8h8kReskuT-12" vertex="1">
          <mxGeometry x="20" y="20" width="20" height="20" as="geometry" />
        </mxCell>
        <mxCell id="nYWVUmKUhp8h8kReskuT-14" style="edgeStyle=orthogonalEdgeStyle;rounded=0;orthogonalLoop=1;jettySize=auto;html=1;exitX=0.996;exitY=0.169;exitDx=0;exitDy=0;endArrow=none;endFill=0;exitPerimeter=0;entryX=0.75;entryY=1;entryDx=0;entryDy=0;" parent="1" source="BdMwT2BXw6ccnMAw5Xdu-21" target="nYWVUmKUhp8h8kReskuT-19" edge="1">
          <mxGeometry relative="1" as="geometry">
            <mxPoint x="529.3599999999999" y="558.67" as="targetPoint" />
            <mxPoint x="520" y="610" as="sourcePoint" />
            <Array as="points">
              <mxPoint x="510" y="560" />
              <mxPoint x="520" y="560" />
            </Array>
          </mxGeometry>
        </mxCell>
        <mxCell id="nYWVUmKUhp8h8kReskuT-19" value="" style="shape=trapezoid;perimeter=trapezoidPerimeter;whiteSpace=wrap;html=1;fixedSize=1;size=10;rotation=90;" parent="1" vertex="1">
          <mxGeometry x="510" y="540" width="40" height="20" as="geometry" />
        </mxCell>
        <mxCell id="nYWVUmKUhp8h8kReskuT-20" style="edgeStyle=orthogonalEdgeStyle;rounded=0;orthogonalLoop=1;jettySize=auto;html=1;endArrow=oval;endFill=1;startArrow=none;startFill=0;exitX=0.25;exitY=1;exitDx=0;exitDy=0;" parent="1" source="nYWVUmKUhp8h8kReskuT-19" edge="1">
          <mxGeometry relative="1" as="geometry">
            <mxPoint x="440" y="550" as="targetPoint" />
            <mxPoint x="470" y="590" as="sourcePoint" />
            <Array as="points">
              <mxPoint x="440" y="540" />
            </Array>
          </mxGeometry>
        </mxCell>
        <mxCell id="nYWVUmKUhp8h8kReskuT-21" value="0" style="text;html=1;strokeColor=none;fillColor=none;align=left;verticalAlign=middle;whiteSpace=wrap;rounded=0;" parent="1" vertex="1">
          <mxGeometry x="520" y="550" width="20" height="20" as="geometry" />
        </mxCell>
        <mxCell id="nYWVUmKUhp8h8kReskuT-22" value="1" style="text;html=1;strokeColor=none;fillColor=none;align=left;verticalAlign=middle;whiteSpace=wrap;rounded=0;" parent="1" vertex="1">
          <mxGeometry x="520" y="530" width="20" height="20" as="geometry" />
        </mxCell>
        <mxCell id="nYWVUmKUhp8h8kReskuT-23" style="edgeStyle=orthogonalEdgeStyle;rounded=0;orthogonalLoop=1;jettySize=auto;html=1;endArrow=oval;endFill=1;startArrow=none;startFill=0;exitX=1;exitY=0.5;exitDx=0;exitDy=0;" parent="1" source="nYWVUmKUhp8h8kReskuT-19" edge="1">
          <mxGeometry relative="1" as="geometry">
            <mxPoint x="280" y="620" as="targetPoint" />
            <mxPoint x="390" y="570" as="sourcePoint" />
            <Array as="points">
              <mxPoint x="530" y="620" />
            </Array>
          </mxGeometry>
        </mxCell>
        <mxCell id="nYWVUmKUhp8h8kReskuT-24" style="edgeStyle=orthogonalEdgeStyle;rounded=0;orthogonalLoop=1;jettySize=auto;html=1;endArrow=oval;endFill=1;startArrow=none;startFill=0;exitX=0;exitY=0.5;exitDx=0;exitDy=0;" parent="1" source="BdMwT2BXw6ccnMAw5Xdu-22" edge="1">
          <mxGeometry relative="1" as="geometry">
            <mxPoint x="440" y="550" as="targetPoint" />
            <mxPoint x="530" y="550" as="sourcePoint" />
            <Array as="points">
              <mxPoint x="440" y="560" />
            </Array>
          </mxGeometry>
        </mxCell>
        <mxCell id="nYWVUmKUhp8h8kReskuT-25" style="edgeStyle=orthogonalEdgeStyle;rounded=0;orthogonalLoop=1;jettySize=auto;html=1;endArrow=oval;endFill=1;startArrow=none;startFill=0;exitX=1;exitY=0.5;exitDx=0;exitDy=0;" parent="1" source="nYWVUmKUhp8h8kReskuT-8" edge="1">
          <mxGeometry relative="1" as="geometry">
            <mxPoint x="560" y="500" as="targetPoint" />
            <mxPoint x="390" y="550" as="sourcePoint" />
            <Array as="points">
              <mxPoint x="560" y="660" />
              <mxPoint x="560" y="500" />
            </Array>
          </mxGeometry>
        </mxCell>
        <mxCell id="FcU1g4WXBQIu41VEVguv-1" value="" style="group" parent="1" vertex="1" connectable="0">
          <mxGeometry x="370" y="570" width="50" height="40" as="geometry" />
        </mxCell>
        <mxCell id="FcU1g4WXBQIu41VEVguv-2" value="OR" style="whiteSpace=wrap;html=1;aspect=fixed;" parent="FcU1g4WXBQIu41VEVguv-1" vertex="1">
          <mxGeometry x="10" width="40" height="40" as="geometry" />
        </mxCell>
        <mxCell id="FcU1g4WXBQIu41VEVguv-3" value="" style="ellipse;whiteSpace=wrap;html=1;" parent="FcU1g4WXBQIu41VEVguv-1" vertex="1">
          <mxGeometry y="25" width="10" height="10" as="geometry" />
        </mxCell>
        <mxCell id="FcU1g4WXBQIu41VEVguv-4" style="edgeStyle=orthogonalEdgeStyle;rounded=0;orthogonalLoop=1;jettySize=auto;html=1;endArrow=oval;endFill=1;startArrow=none;startFill=0;exitX=0;exitY=0.5;exitDx=0;exitDy=0;" parent="1" source="FcU1g4WXBQIu41VEVguv-3" edge="1">
          <mxGeometry relative="1" as="geometry">
            <mxPoint x="360" y="640" as="targetPoint" />
            <mxPoint x="361" y="590" as="sourcePoint" />
            <Array as="points">
              <mxPoint x="360" y="600" />
            </Array>
          </mxGeometry>
        </mxCell>
        <mxCell id="FcU1g4WXBQIu41VEVguv-5" style="edgeStyle=orthogonalEdgeStyle;rounded=0;orthogonalLoop=1;jettySize=auto;html=1;endArrow=oval;endFill=1;startArrow=none;startFill=0;exitX=0;exitY=0.25;exitDx=0;exitDy=0;" parent="1" source="FcU1g4WXBQIu41VEVguv-2" edge="1">
          <mxGeometry relative="1" as="geometry">
            <mxPoint x="360" y="500" as="targetPoint" />
            <mxPoint x="390" y="600" as="sourcePoint" />
          </mxGeometry>
        </mxCell>
        <mxCell id="FcU1g4WXBQIu41VEVguv-6" style="edgeStyle=orthogonalEdgeStyle;rounded=0;orthogonalLoop=1;jettySize=auto;html=1;exitX=1;exitY=0.25;exitDx=0;exitDy=0;endArrow=none;endFill=0;entryX=0;entryY=0.5;entryDx=0;entryDy=0;" parent="1" source="FcU1g4WXBQIu41VEVguv-2" target="BdMwT2BXw6ccnMAw5Xdu-26" edge="1">
          <mxGeometry relative="1" as="geometry">
            <mxPoint x="530" y="570" as="targetPoint" />
            <mxPoint x="510" y="570" as="sourcePoint" />
            <Array as="points">
              <mxPoint x="440" y="580" />
              <mxPoint x="440" y="580" />
            </Array>
          </mxGeometry>
        </mxCell>
      </root>
    </mxGraphModel>
  </diagram>
</mxfile>
